<?xml version="1.0" standalone="no"?>
<!DOCTYPE svg PUBLIC "-//W3C//DTD SVG 20010904//EN"
 "http://www.w3.org/TR/2001/REC-SVG-20010904/DTD/svg10.dtd">
<svg version="1.0" xmlns="http://www.w3.org/2000/svg"
 width="299.000000pt" height="299.000000pt" viewBox="0 0 299.000000 299.000000"
 preserveAspectRatio="xMidYMid meet">
<metadata>
Created by potrace 1.11, written by Peter Selinger 2001-2013
</metadata>
<g transform="translate(0.000000,299.000000) scale(0.100000,-0.100000)"
fill="#000000" stroke="none">
<path d="M1349 2986 c-2 -2 -30 -7 -63 -11 -156 -17 -412 -106 -541 -187 -286
-180 -470 -384 -605 -671 -39 -85 -91 -237 -105 -308 -37 -195 -41 -419 -10
-579 39 -204 105 -375 208 -540 50 -79 43 -69 114 -155 101 -124 252 -253 398
-342 123 -75 306 -146 457 -177 107 -22 496 -23 600 -1 196 41 378 120 553
239 88 59 280 241 341 321 127 169 213 352 269 570 20 80 23 116 24 325 1 180
-2 255 -14 320 -29 147 -99 332 -179 465 -93 155 -261 342 -396 438 -36 26
-70 51 -77 57 -23 19 -202 111 -264 136 -35 14 -102 35 -149 48 -75 21 -102
27 -185 43 -29 5 -371 13 -376 9z"/>
</g>
</svg>
